<?xml version="1.0" standalone="no"?>
<!DOCTYPE svg PUBLIC "-//W3C//DTD SVG 20010904//EN"
 "http://www.w3.org/TR/2001/REC-SVG-20010904/DTD/svg10.dtd">
<svg version="1.0" xmlns="http://www.w3.org/2000/svg"
 width="500.000000pt" height="500.000000pt" viewBox="0 0 500.000000 500.000000"
 preserveAspectRatio="xMidYMid meet">

<g transform="translate(0.000000,500.000000) scale(0.100000,-0.100000)"
fill="#000000" stroke="none">
<path d="M0 3470 l0 -260 275 0 275 0 0 -1605 0 -1605 340 0 340 0 0 1605 0
1605 245 0 245 0 0 -200 0 -200 300 0 300 0 0 200 0 200 645 0 645 0 0 -200 0
-200 -387 -1 c-214 -1 -398 0 -410 1 l-23 1 0 -245 0 -246 885 0 885 0 0 -915
0 -915 -1120 0 -1120 0 0 910 0 910 -300 0 -300 0 0 -1155 0 -1155 1640 0
1640 0 0 1405 0 1405 -415 0 -415 0 0 342 0 343 -117 117 -118 118 -1967 0
-1968 0 0 -260z"/>
</g>
</svg>
